<?xml version="1.0" encoding="UTF-8"?>
<svg width="101px" height="101px" viewBox="0 0 101 101" version="1.1" xmlns="http://www.w3.org/2000/svg" xmlns:xlink="http://www.w3.org/1999/xlink">
    <!-- Generator: Sketch 49.1 (51147) - http://www.bohemiancoding.com/sketch -->
    <title>Group 83</title>
    <desc>Created with Sketch.</desc>
    <defs>
        <circle id="path-1" cx="46.5" cy="46.5" r="46.5"></circle>
        <filter x="-7.5%" y="-5.4%" width="115.1%" height="115.1%" filterUnits="objectBoundingBox" id="filter-2">
            <feOffset dx="0" dy="2" in="SourceAlpha" result="shadowOffsetOuter1"></feOffset>
            <feGaussianBlur stdDeviation="2" in="shadowOffsetOuter1" result="shadowBlurOuter1"></feGaussianBlur>
            <feColorMatrix values="0 0 0 0 0   0 0 0 0 0   0 0 0 0 0  0 0 0 0.2 0" type="matrix" in="shadowBlurOuter1"></feColorMatrix>
        </filter>
    </defs>
    <g id="website-new" stroke="none" stroke-width="1" fill="none" fill-rule="evenodd">
        <g id="Group-83" transform="translate(4.000000, 2.000000)">
            <g id="Group-80-Copy-3">
                <g id="Group-10-Copy-4">
                    <g id="Group-77">
                        <g id="Oval-5">
                            <use fill="black" fill-opacity="1" filter="url(#filter-2)" xlink:href="#path-1"></use>
                            <use fill="#FFFFFF" fill-rule="evenodd" xlink:href="#path-1"></use>
                        </g>
                    </g>
                </g>
            </g>
            <g id="PHP-Logo-595b40b85ba036ed117dddad" transform="translate(16.000000, 30.000000)" fill="#6A33C1" fill-rule="nonzero">
                <path d="M31,0 C22.6141655,0 15.00989,1.72722254 9.39485677,4.60591915 C3.77982393,7.48461577 0,11.6367773 0,16.5 C0,21.3632227 3.77982393,25.5153842 9.39485677,28.3940808 C15.00989,31.2727775 22.6141655,33 31,33 C39.3858345,33 46.9901113,31.2727775 52.6051426,28.3940808 C58.2201765,25.5153842 62,21.3632227 62,16.5 C62,11.6367773 58.2201778,7.48461577 52.6051426,4.60591915 C46.9901113,1.72722254 39.3858345,0 31,0 Z M31,2.53846154 C39.0216246,2.53846154 46.2720738,4.2205845 51.4093421,6.85434242 C56.5466118,9.48810035 59.4166667,12.9515011 59.4166667,16.5 C59.4166667,20.0484989 56.5466118,23.5118997 51.4093421,26.1456576 C46.2720738,28.7794155 39.0216246,30.4615385 31,30.4615385 C22.9783754,30.4615385 15.7279262,28.7794155 10.5906576,26.1456576 C5.45338851,23.5118997 2.58333333,20.0484989 2.58333333,16.5 C2.58333333,12.9515011 5.45338851,9.48810035 10.5906576,6.85434242 C15.7279262,4.2205845 22.9783754,2.53846154 31,2.53846154 Z M27.7809238,5.07692308 L24.5416667,20.3076923 L27.9322917,20.3076923 L29.5670573,12.6923077 L32.2765296,12.6923077 C33.1406546,12.6923077 33.713328,12.8332317 33.9794113,13.1137317 C34.244203,13.3967701 34.3021458,13.9310566 34.1484375,14.7027489 L32.9097498,20.3076923 L36.3533525,20.3076923 L37.6954756,14.2441403 C37.9835173,12.7908711 37.7639946,11.7233287 37.0471196,11.076021 C36.317328,10.4185595 35.0322204,10.1538462 33.1140954,10.1538462 L30.0917969,10.1538462 L31.1690262,5.07692308 L27.7809238,5.07692308 Z M12.9166667,10.1538462 L10.2980143,24.1153846 L13.7138678,24.1153846 L14.3950192,20.3076923 L16.521729,20.3076923 C20.9728123,20.3076923 23.3940208,19.2950251 24.2994792,15.5406405 C25.0783542,12.3155251 23.08729,10.1538462 19.8038734,10.1538462 L12.9166667,10.1538462 Z M40.0416667,10.1538462 L37.423014,24.1153846 L40.8388678,24.1153846 L41.5200192,20.3076923 L43.646729,20.3076923 C48.0978123,20.3076923 50.5190208,19.2950251 51.4244792,15.5406405 C52.2033542,12.3155251 50.21229,10.1538462 46.9288734,10.1538462 L40.0416667,10.1538462 Z M15.8531907,12.6923077 L18.5147293,12.6923077 C20.720896,12.6923077 21.1852708,13.6695557 21.0703125,14.7572865 C20.7745208,17.5572096 18.9984998,17.7692308 17.0868332,17.7692308 L14.8768716,17.7692308 L15.8531907,12.6923077 Z M42.9781907,12.6923077 L45.6397293,12.6923077 C47.845896,12.6923077 48.3102708,13.6695557 48.1953125,14.7572865 C47.8995208,17.5572096 46.1234998,17.7692308 44.2118332,17.7692308 L42.0018716,17.7692308 L42.9781907,12.6923077 Z" id="Shape"></path>
            </g>
        </g>
    </g>
</svg>