<?xml version="1.0" encoding="UTF-8"?>
<svg width="101px" height="101px" viewBox="0 0 101 101" version="1.1" xmlns="http://www.w3.org/2000/svg" xmlns:xlink="http://www.w3.org/1999/xlink">
    <!-- Generator: Sketch 49.1 (51147) - http://www.bohemiancoding.com/sketch -->
    <title>Group 10 Copy</title>
    <desc>Created with Sketch.</desc>
    <defs>
        <circle id="path-1" cx="46.5" cy="46.5" r="46.5"></circle>
        <filter x="-7.5%" y="-5.4%" width="115.1%" height="115.1%" filterUnits="objectBoundingBox" id="filter-2">
            <feOffset dx="0" dy="2" in="SourceAlpha" result="shadowOffsetOuter1"></feOffset>
            <feGaussianBlur stdDeviation="2" in="shadowOffsetOuter1" result="shadowBlurOuter1"></feGaussianBlur>
            <feColorMatrix values="0 0 0 0 0   0 0 0 0 0   0 0 0 0 0  0 0 0 0.2 0" type="matrix" in="shadowBlurOuter1"></feColorMatrix>
        </filter>
    </defs>
    <g id="website-new" stroke="none" stroke-width="1" fill="none" fill-rule="evenodd">
        <g id="Group-10-Copy" transform="translate(4.000000, 2.000000)">
            <g id="Oval-5">
                <use fill="black" fill-opacity="1" filter="url(#filter-2)" xlink:href="#path-1"></use>
                <use fill="#FFFFFF" fill-rule="evenodd" xlink:href="#path-1"></use>
            </g>
            <g id="golang" transform="translate(29.000000, 21.000000)" fill="#17BDD0" fill-rule="nonzero">
                <path d="M3.41128706,24.8079405 C3.29458181,19.6441922 2.01082405,14.5809464 3.32959338,9.48997583 C-2.40063442,7.89348811 1.86144133,0.675792557 6.46312936,3.64465901 C9.2757259,0.798243858 13.323064,0.352336291 17.8185502,0 C22.0759578,0 26.1361335,0.447062769 29.0922775,2.908796 C33.3846966,0.332697874 37.1029259,6.73482155 32.5619246,8.69981838 C33.9705569,13.8520146 33.4663902,19.2745279 33.7021349,24.6254187 C34.4490485,24.6797132 35.193628,24.9165294 35.7911588,25.3462641 C36.2019613,25.6419955 36.972216,26.5846395 36.1681168,26.9543038 C36.0957595,28.4364267 34.5995982,27.7513925 33.9227078,27.2870017 C34.1911299,32.3467819 34.527241,37.9541273 32.2036394,42.5472063 C31.6177791,43.7058728 30.8451903,44.6773969 29.9372235,45.4883479 C31.1124453,46.2831262 32.9482189,48.2677614 31.3026749,49.254303 C29.6921424,50.714477 28.7678369,47.7871978 27.3837126,47.2095973 C24.2653483,48.7899122 20.4105739,49.242751 16.9969453,49.1214549 C14.4842812,49.0336596 11.6751859,48.5346128 9.25938717,47.3863431 C7.92894731,47.6231593 7.16802908,48.8303443 6.04065636,49.4449112 C4.97863857,50.0721853 4.5701702,49.2439062 4.476806,49.0752469 C4.30991749,49.0001588 4.32275507,49.1445589 4.06600352,48.8904147 C3.0810112,47.3505319 5.09300972,46.2265213 6.13985582,45.4617783 C6.19820844,45.4502263 6.25422696,45.4409847 6.31141254,45.4340535 C5.70687934,44.879557 5.17236929,44.2476621 4.72888934,43.5349031 C1.87778007,38.9649281 3.11602278,32.2289514 3.37977664,27.0559615 C3.26307139,27.2500353 3.03549615,27.1761024 2.59785146,27.4752995 C1.92096101,27.9373798 0.424799696,28.6247244 0.352442441,27.1426016 C-0.452823789,26.7729373 0.317430865,25.8302933 0.7294004,25.5345619 C1.48798453,24.989307 2.47997916,24.7559564 3.41362116,24.8090957 L3.41128706,24.8079405 Z M3.57117325,7.49494378 L4.70321418,5.37746044 C3.94463005,4.98122651 3.15103435,4.89458644 2.72155903,5.6962959 C2.25940624,6.56269661 2.81492323,7.09986506 3.5700062,7.49609898 L3.57117325,7.49494378 Z M30.9618956,6.74406316 L29.8298546,4.62426941 C30.5884388,4.22919069 31.3820345,4.14139542 31.8103427,4.94310488 C32.2736626,5.80719519 31.7169785,6.34551883 30.9630626,6.74175276 L30.9618956,6.74406316 Z M6.76306186,12.0002275 C8.09816992,17.1605102 16.4449294,15.8389603 16.1298253,10.6625048 C15.7540344,4.46369648 5.48630642,5.66048467 6.76422891,12.0002275 L6.76306186,12.0002275 Z M18.4592621,11.0414107 C19.4897694,16.9675916 29.2778388,15.4011391 27.8715405,9.42412937 C26.6111238,4.06399695 18.1173157,5.54611977 18.4592621,11.0414107 Z M20.8750608,12.2924933 C21.6394802,12.2924933 22.2603521,11.617856 22.2603521,10.7826457 C22.2603521,9.94859061 21.6394802,9.27164285 20.8738937,9.27164285 C20.1083073,9.27164285 19.4874353,9.94859061 19.4874353,10.7826457 C19.4874353,11.617856 20.1083073,12.2936485 20.8738937,12.2936485 L20.8750608,12.2924933 Z M9.0644894,12.6702441 C9.84291342,12.6702441 10.4742888,11.9944515 10.4742888,11.1592412 C10.4742888,10.3240309 9.84408047,9.64592796 9.0644894,9.64592796 C8.28606538,9.64592796 7.65585702,10.3240309 7.65585702,11.1592412 C7.65585702,11.9932963 8.28606538,12.6690888 9.0644894,12.6690888 L9.0644894,12.6702441 Z M19.8270476,16.3091271 C21.0291117,16.8832619 22.3408787,17.9783924 21.2940326,19.1000926 C20.2786969,20.1859814 19.2458555,18.8921564 17.9831047,18.8655868 C15.8217234,18.8471035 15.123826,20.2599143 14.3348985,18.8471035 C13.8027226,17.8940628 14.4936177,16.7157578 15.4634383,16.4061639 C15.4552689,16.3715079 15.4470996,16.3322311 15.4424313,16.2941094 L15.5824776,16.2756262 L15.4424313,16.2825574 C15.3992504,15.2937054 16.2593681,14.6190681 17.4439264,14.4989272 C18.5923061,14.3799415 19.6379851,14.8270042 19.8690615,15.6726113 C19.9320823,15.9036515 19.9134095,16.1185189 19.8270476,16.3102823 L19.8270476,16.3091271 Z M19.5586255,19.6742274 C19.5621267,20.3015015 19.7150106,21.0050189 19.5843007,21.6727251 C19.4092428,21.9730773 19.0626282,22.0077334 18.7650298,22.1290295 C18.3518932,22.0712694 18.0064457,21.8240564 17.8407242,21.4740305 C17.7356895,20.7115979 17.879237,19.9757349 17.9060792,19.2144574 L19.5586255,19.6742274 Z M15.6023175,19.6049154 L17.6038126,19.177491 C17.5746363,19.9376132 17.4170842,20.6746315 17.5337894,21.4359089 C15.9325934,23.2056767 15.012956,20.8063244 15.6034846,19.6060706 L15.6023175,19.6049154 Z M15.7388627,16.3299207 C15.9092523,17.6214353 19.9484211,17.2829615 19.5399527,15.8274083 C19.1314843,14.3683895 15.6606702,14.5855672 15.7388627,16.3299207 Z" id="Shape"></path>
            </g>
        </g>
    </g>
</svg>