<?xml version="1.0" encoding="UTF-8"?>
<svg width="101px" height="101px" viewBox="0 0 101 101" version="1.1" xmlns="http://www.w3.org/2000/svg" xmlns:xlink="http://www.w3.org/1999/xlink">
    <!-- Generator: Sketch 49.1 (51147) - http://www.bohemiancoding.com/sketch -->
    <title>Group 80</title>
    <desc>Created with Sketch.</desc>
    <defs>
        <circle id="path-1" cx="46.5" cy="46.5" r="46.5"></circle>
        <filter x="-7.5%" y="-5.4%" width="115.1%" height="115.1%" filterUnits="objectBoundingBox" id="filter-2">
            <feOffset dx="0" dy="2" in="SourceAlpha" result="shadowOffsetOuter1"></feOffset>
            <feGaussianBlur stdDeviation="2" in="shadowOffsetOuter1" result="shadowBlurOuter1"></feGaussianBlur>
            <feColorMatrix values="0 0 0 0 0   0 0 0 0 0   0 0 0 0 0  0 0 0 0.2 0" type="matrix" in="shadowBlurOuter1"></feColorMatrix>
        </filter>
    </defs>
    <g id="website-new" stroke="none" stroke-width="1" fill="none" fill-rule="evenodd">
        <g id="Group-80" transform="translate(4.000000, 2.000000)">
            <g id="Group-10-Copy-4">
                <g id="Group-77">
                    <g id="Oval-5">
                        <use fill="black" fill-opacity="1" filter="url(#filter-2)" xlink:href="#path-1"></use>
                        <use fill="#FFFFFF" fill-rule="evenodd" xlink:href="#path-1"></use>
                    </g>
                </g>
            </g>
            <g id="icons8-java" transform="translate(26.000000, 21.000000)" fill="#AC0101">
                <path d="M15.35625,21.5520265 C15.35625,21.5520265 5.2,21.4932986 5.2,24.2144186 C5.2,27.0627871 18.4539056,27.2193984 27.95,25.4673089 C27.95,25.4673089 30.1234388,24.3514547 30.79375,23.7445847 C24.5679694,24.9485346 10.80625,24.5472188 10.80625,23.5096677 C10.80625,22.5504248 15.35625,21.5520265 15.35625,21.5520265 Z M35.5875,21.6303322 C34.4703138,21.5813918 33.23125,21.9239796 32.175,22.6483056 C34.36875,22.1882593 36.2375,23.4900926 36.2375,24.9974751 C36.2375,28.3744055 31.2,31.5751495 31.2,31.5751495 C31.2,31.5751495 39,30.7137873 39,25.1540863 C39,22.8538573 37.4460944,21.7086378 35.5875,21.6303322 Z M11.78125,26.563588 C10.196875,26.563588 7.8,27.8262659 7.8,28.9910631 C7.8,31.3402325 19.7539056,33.1216873 28.6,29.6958139 L25.5125,27.8164784 C19.5101556,29.7153916 8.5109388,29.098734 11.78125,26.563588 Z M13.975,31.5751495 C11.7914056,31.5751495 10.4,33.0433816 10.4,34.0809302 C10.4,37.2816742 23.4304694,37.3404021 28.6,34.0809302 L25.35,32.123289 C21.490625,33.8264381 11.740625,34.0417774 13.975,31.5751495 Z M4.55,36.5084053 C1.4421888,36.4105245 0,37.9179069 0,39.1707973 C0,45.8267774 33.8,45.5820728 33.8,38.7792691 C33.8,37.6536247 32.4898444,37.0761225 32.0125,36.8216279 C34.775,43.3307842 4.0625,42.8511627 4.0625,39.014186 C4.0625,38.1430363 5.646875,37.2816742 7.71875,37.68299 C7.71875,37.68299 7.0179694,36.8314154 6.0125,36.6650166 C5.4945306,36.5769233 4.996875,36.5181928 4.55,36.5084053 Z M39,41.5199667 C33.6375,46.5804686 18.8703138,49.6539665 5.2,46.5315282 C18.93125,51.8954651 38.9390638,47.7354781 39,41.5199667 Z" id="Shape" fill-rule="nonzero"></path>
                <path d="M23.45625,0 C26.2898444,5.49118292 13.2898444,8.8974786 12.08125,13.4685714 C10.9742194,17.6775012 19.7898444,22.5520265 19.8,22.5520265 C18.459375,20.8097271 17.484375,19.3904354 16.14375,16.679103 C13.8789056,12.0982226 29.5703138,7.36073089 23.45625,0 Z" id="Path"></path>
                <path d="M32.8,7.51734218 C32.8,7.51734218 22.9078138,8.13399979 22.4,13.9384053 C22.1765638,16.5224917 25,17.9319933 25.08125,19.8113289 C25.1523444,21.3480766 23.375,22.5520265 23.375,22.5520265 C23.375,22.5520265 26.2796888,22.1507107 27.275,19.8113289 C28.371875,17.2174549 25.3960944,15.3185417 25.73125,13.2336545 C26.0460944,11.2368605 32.8,7.51734218 32.8,7.51734218 Z" id="Path"></path>
            </g>
        </g>
    </g>
</svg>