<?xml version="1.0" encoding="UTF-8"?>
<svg width="101px" height="101px" viewBox="0 0 101 101" version="1.1" xmlns="http://www.w3.org/2000/svg" xmlns:xlink="http://www.w3.org/1999/xlink">
    <!-- Generator: Sketch 49.1 (51147) - http://www.bohemiancoding.com/sketch -->
    <title>Group 83 Copy 7</title>
    <desc>Created with Sketch.</desc>
    <defs>
        <circle id="path-1" cx="46.5" cy="46.5" r="46.5"></circle>
        <filter x="-7.5%" y="-5.4%" width="115.1%" height="115.1%" filterUnits="objectBoundingBox" id="filter-2">
            <feOffset dx="0" dy="2" in="SourceAlpha" result="shadowOffsetOuter1"></feOffset>
            <feGaussianBlur stdDeviation="2" in="shadowOffsetOuter1" result="shadowBlurOuter1"></feGaussianBlur>
            <feColorMatrix values="0 0 0 0 0   0 0 0 0 0   0 0 0 0 0  0 0 0 0.2 0" type="matrix" in="shadowBlurOuter1"></feColorMatrix>
        </filter>
    </defs>
    <g id="website-new" stroke="none" stroke-width="1" fill="none" fill-rule="evenodd">
        <g id="Group-83-Copy-7" transform="translate(4.000000, 2.000000)">
            <g id="Group-80-Copy-3">
                <g id="Group-10-Copy-4">
                    <g id="Group-77">
                        <g id="Oval-5">
                            <use fill="black" fill-opacity="1" filter="url(#filter-2)" xlink:href="#path-1"></use>
                            <use fill="#FFFFFF" fill-rule="evenodd" xlink:href="#path-1"></use>
                        </g>
                    </g>
                </g>
            </g>
            <g id="Group-12" transform="translate(25.000000, 24.000000)" fill="#82BB44" fill-rule="nonzero">
                <path d="M22.5253045,46.9184943 C21.8454569,46.9184943 21.1702659,46.7536694 20.5742352,46.4364999 L14.3638745,43.0384396 C13.4363017,42.5590273 13.8889126,42.3894686 14.194844,42.2917786 C15.4316077,41.8915512 15.6825925,41.8011772 17.0027074,41.1083103 C17.1414708,41.0351504 17.3230739,41.0609716 17.4650968,41.138435 L22.2361364,43.7549758 C22.4084266,43.8410463 22.6528923,43.8410463 22.8126099,43.7549758 L41.4152872,33.831056 C41.5875774,33.740682 41.6993331,33.5556306 41.6993331,33.3662757 L41.6993331,13.527043 C41.6993331,13.329081 41.5875774,13.1526366 41.411562,13.0536557 L22.8163351,3.13834283 C22.644045,3.04366536 22.4158769,3.04366536 22.2435868,3.13834283 L3.65208506,13.0536557 C3.4718789,13.1483331 3.35732925,13.3333845 3.35732925,13.5227395 L3.35732925,33.3619722 C3.35732925,33.5513271 3.46908501,33.732075 3.64603163,33.8224489 L8.74023163,36.5422743 C11.5061867,37.8204201 13.1964925,36.3141877 13.1964925,34.7993482 L13.1964925,15.2183268 C13.1964925,14.9385979 13.4339735,14.7234219 13.7366453,14.7234219 L16.0928293,14.7234219 C16.3861881,14.7234219 16.6283256,14.9385979 16.6283256,15.2183268 L16.6283256,34.8079553 C16.6283256,38.2163441 14.6167219,40.1744462 11.119698,40.1744462 C10.0440488,40.1744462 9.19656764,40.1744462 6.83107075,39.0985659 L1.95106929,36.4992391 C0.745038391,35.8537109 0,34.648725 0,33.3619722 L0,13.5227395 C0,12.2316831 0.745038391,11.0266972 1.95106929,10.389776 L20.5723726,0.461552648 C21.7504645,-0.153850883 23.3150452,-0.153850883 24.4838241,0.461552648 L43.081845,10.3940796 C44.2832194,11.0353042 45.0329143,12.2359866 45.0329143,13.527043 L45.0329143,33.3662757 C45.0329143,34.6530285 44.2832194,35.8537109 43.081845,36.4992391 L24.4838241,46.4274625 C23.8877934,46.7459231 23.2126024,46.9094569 22.5234419,46.9094569" id="Shape"></path>
                <path d="M28.0015801,34.1021729 C20.1262483,34.1021729 18.4750417,30.6248171 18.4750417,27.7082412 C18.4750417,27.4308848 18.7075172,27.2098664 18.9963094,27.2098664 L21.3210641,27.2098664 C21.5778684,27.2098664 21.7941247,27.3897147 21.8346727,27.6337017 C22.1860891,29.9123578 23.2313276,31.0616534 27.9934705,31.0616534 C31.7869655,31.0616534 33.3998767,30.2373849 33.3998767,28.3023906 C33.3998767,27.1886313 32.9403322,26.3608958 27.0473494,25.806183 C22.118509,25.3381441 19.0729002,24.2937239 19.0729002,20.5017419 C19.0729002,17.0087848 22.1365304,14.9286118 27.268111,14.9286118 C33.030439,14.9286118 35.8868236,16.8527718 36.2472507,20.9871156 C36.2607667,21.1301275 36.2067026,21.2688057 36.1075852,21.3728144 C36.0084677,21.4724893 35.8688022,21.533161 35.7246314,21.533161 L33.3863607,21.533161 C33.1430724,21.533161 32.9313215,21.3684807 32.8817628,21.1431286 C32.3185955,18.746596 30.9579832,17.9795322 27.2591003,17.9795322 C23.1186942,17.9795322 22.636623,19.3663142 22.636623,20.4064007 C22.636623,21.6675055 23.2042956,22.0358695 28.7909154,22.7465953 C34.3234711,23.4529874 36.9500835,24.4497369 36.9500835,28.1897146 C36.9500835,31.9600281 33.6792077,34.1225413 27.9754491,34.1225413 L28.0015801,34.1021729 Z" id="Shape"></path>
            </g>
        </g>
    </g>
</svg>