<?xml version="1.0" encoding="UTF-8"?>
<svg width="101px" height="101px" viewBox="0 0 101 101" version="1.1" xmlns="http://www.w3.org/2000/svg" xmlns:xlink="http://www.w3.org/1999/xlink">
    <!-- Generator: Sketch 49.1 (51147) - http://www.bohemiancoding.com/sketch -->
    <title>Group 10 Copy 2</title>
    <desc>Created with Sketch.</desc>
    <defs>
        <circle id="path-1" cx="46.5" cy="46.5" r="46.5"></circle>
        <filter x="-7.5%" y="-5.4%" width="115.1%" height="115.1%" filterUnits="objectBoundingBox" id="filter-2">
            <feOffset dx="0" dy="2" in="SourceAlpha" result="shadowOffsetOuter1"></feOffset>
            <feGaussianBlur stdDeviation="2" in="shadowOffsetOuter1" result="shadowBlurOuter1"></feGaussianBlur>
            <feColorMatrix values="0 0 0 0 0   0 0 0 0 0   0 0 0 0 0  0 0 0 0.2 0" type="matrix" in="shadowBlurOuter1"></feColorMatrix>
        </filter>
        <path d="M23.5966685,0.0723172855 C21.6276608,0.081368491 19.74721,0.244013114 18.0925313,0.528110138 C13.2183851,1.36340711 12.3334838,3.1113981 12.3334838,6.33538212 L12.3334838,10.5934202 L23.8518644,10.5934202 L23.8518644,12.0126123 L12.3333886,12.0126123 L8.01067502,12.0126123 C4.66313347,12.0126123 1.73199924,13.964163 0.815388942,17.6765427 C-0.242245646,21.9319947 -0.28947593,24.5877847 0.815388942,29.0310954 C1.63420589,32.3382951 3.58921586,34.6949335 6.93685263,34.6949335 L10.8970547,34.6949335 L10.8970547,29.5903306 C10.8970547,25.9032574 14.1864154,22.6501802 18.092436,22.6501802 L29.5973902,22.6501802 C32.7999082,22.6501802 35.3563425,20.0928452 35.3563425,16.9732271 L35.3563425,6.33528976 C35.3563425,3.30812328 32.7231589,1.03331518 29.5973902,0.528017779 C27.6187651,0.208454806 25.5655809,0.0631737206 23.5966685,0.0723172855 Z M17.3676988,3.49672085 C18.5574068,3.49672085 19.5291508,4.45448618 19.5291508,5.6320665 C19.5291508,6.80549065 18.5574068,7.75466657 17.3676988,7.75466657 C16.1734201,7.75466657 15.2062468,6.80549065 15.2062468,5.6320665 C15.2062468,4.45448618 16.1734201,3.49672085 17.3676988,3.49672085 Z" id="path-3"></path>
    </defs>
    <g id="website-new" stroke="none" stroke-width="1" fill="none" fill-rule="evenodd">
        <g id="Group-10-Copy-2" transform="translate(4.000000, 2.000000)">
            <g id="Oval-5">
                <use fill="black" fill-opacity="1" filter="url(#filter-2)" xlink:href="#path-1"></use>
                <use fill="#FFFFFF" fill-rule="evenodd" xlink:href="#path-1"></use>
            </g>
            <g id="icon/pip-copy" transform="translate(23.000000, 23.000000)">
                <mask id="mask-4" fill="white">
                    <use xlink:href="#path-3"></use>
                </mask>
                <use id="Combined-Shape" fill="#224868" fill-rule="nonzero" xlink:href="#path-3"></use>
                <path d="M36.7926763,12.0124276 L36.7926763,12.0126123 L41.1151995,12.0126123 C44.4671212,12.0126123 46.0472408,14.4446158 46.8744373,17.6765427 C48.0259612,22.1655713 48.0770003,25.531142 46.8744373,29.0310954 C45.7106298,32.4303773 44.4629314,34.6949335 41.1151995,34.6949335 L35.3562472,34.6949335 L23.8517691,34.6949335 L23.8517691,36.1139409 L35.3563425,36.1139409 L35.3563425,40.3721637 C35.3563425,43.5956859 32.4970059,45.23497 29.5973902,46.0488397 C25.2344928,47.2772176 21.7385949,47.0887124 18.092436,46.0488397 C15.0475111,45.1806628 12.3333886,43.3994225 12.3333886,40.3721637 L12.3333886,29.7336722 C12.3333886,26.6727022 14.9411477,24.056442 18.092436,24.056442 L29.5974855,24.056442 C33.4310419,24.056442 36.7926763,20.8198048 36.7926763,16.9732271 L36.7926763,12.0124276 Z M30.3224132,38.9525098 C29.1327052,38.9525098 28.1611516,39.9009468 28.1612468,41.0744633 C28.1612468,42.2519513 29.1328004,43.2101784 30.3224132,43.2101784 C31.5164062,43.2101784 32.48377,42.2519513 32.48377,41.0744633 C32.48377,39.9009468 31.5164062,38.9525098 30.3224132,38.9525098 Z" id="Combined-Shape" fill="#224868"></path>
            </g>
        </g>
    </g>
</svg>