<?xml version="1.0" encoding="UTF-8"?>
<svg width="93px" height="93px" viewBox="0 0 93 93" version="1.1" xmlns="http://www.w3.org/2000/svg" xmlns:xlink="http://www.w3.org/1999/xlink">
    <!-- Generator: Sketch 49.1 (51147) - http://www.bohemiancoding.com/sketch -->
    <title>Group 9</title>
    <desc>Created with Sketch.</desc>
    <defs>
        <linearGradient x1="50%" y1="0%" x2="50%" y2="100%" id="linearGradient-1">
            <stop stop-color="#B91240" offset="0%"></stop>
            <stop stop-color="#DB0943" offset="53.3770161%"></stop>
            <stop stop-color="#F80245" offset="100%"></stop>
        </linearGradient>
    </defs>
    <g id="website-new" stroke="none" stroke-width="1" fill="none" fill-rule="evenodd">
        <g id="Resources" transform="translate(-1053.000000, -627.000000)">
            <g id="Group-9" transform="translate(1053.000000, 627.000000)">
                <circle id="Oval-5" fill="url(#linearGradient-1)" cx="46.5" cy="46.5" r="46.5"></circle>
                <g id="logo_ruby_vector-5835c851" transform="translate(22.000000, 23.000000)" fill="#FFFFFF">
                    <path d="M35.0568381,0 L22.7756317,2.80440625 L24.6830857,3.27135937 L35.0568381,0 Z M28.3800634,3.62241406 L42.2108191,6.07610156 L39.3489524,0.116570312 L28.3793778,3.62275 L28.3800634,3.62241406 Z M13.2363047,8.99741406 L5.36514293,17.6444453 L2.02606995,23.7188672 L4.41141593,25.7066094 L12.7580699,20.5650859 L22.0587937,10.3996172 L24.2041653,4.67389844 L20.8668064,3.73898438 L13.2356191,8.99741406 L13.2363047,8.99741406 Z M23.4907555,10.3996172 L38.7531302,6.54305469 L25.7561143,4.55699219 L23.4907555,10.3996172 Z M31.9567111,25.8225078 L44,41.7147031 L42.3297779,6.77720313 L31.9567111,25.8221719 L31.9567111,25.8225078 Z M24.0855493,11.5680078 L31.1222857,24.5378828 L40.5409398,7.24449219 L24.0855493,11.5680078 Z M14.0703873,21.0330469 L29.8092826,24.4226563 L22.7752889,11.5680078 L14.0703873,21.0330469 Z M4.88862225,26.875 L10.3727239,37.625 L12.6397968,21.9669531 L4.88862225,26.875 Z M11.446781,39.9621172 L30.1682159,25.4731328 L13.9514285,22.0838594 L11.4471238,39.9614453 L11.446781,39.9621172 Z M0,38.0919531 L0.119301581,38.0919531 L0.119301581,38.7933906 L3.93489524,27.1088125 L1.42956205,25.1224141 L0,38.0919531 Z M12.7587556,40.7794531 L42.8080127,41.9485156 L31.1222857,26.525625 L12.7587556,40.7794531 Z M0.35653346,41.8319453 L10.4937396,40.5466484 L4.53106033,28.7451641 L0.35653346,41.8309375 L0.35653346,41.8319453 Z M11.2074922,41.8319453 L1.19233017,43 L39.946146,42.8830938 L11.4474666,41.7147031 L11.2074922,41.8316094 L11.2074922,41.8319453 Z" id="Shape"></path>
                </g>
            </g>
        </g>
    </g>
</svg>